<svg xmlns="http://www.w3.org/2000/svg" width="24" height="23.998" viewBox="0 0 24 23.998">
  <g id="conecction" transform="translate(-2592.345 -1468.052)">
    <g id="Password-5">
      <path id="Password-6" d="M2599.145,1492.047a6.6,6.6,0,0,1-4.929-1.981,7.248,7.248,0,0,1-1.867-5.116v-9.8a7.25,7.25,0,0,1,1.869-5.116,6.6,6.6,0,0,1,4.927-1.98h10.4a6.6,6.6,0,0,1,4.929,1.98,7.249,7.249,0,0,1,1.866,5.116v9.8a7.247,7.247,0,0,1-1.868,5.116,6.6,6.6,0,0,1-4.93,1.981Zm-5-16.9v9.8c0,3.219,1.96,5.3,5,5.3h10.4c3.038,0,5-2.079,5-5.3v-9.8a5.489,5.489,0,0,0-1.351-3.857,4.845,4.845,0,0,0-3.645-1.44h-10.4C2596.11,1469.855,2594.148,1471.935,2594.148,1475.152Zm15.314,7.243-.009-.12v-1.319h-1.593v1.319a.9.9,0,0,1-1.79.12l-.009-.12v-1.319h-2.519a3.119,3.119,0,1,1,0-1.8h6.812a.9.9,0,0,1,.892.778l.008.12v2.221a.9.9,0,0,1-1.791.12Zm-10.229-2.344a1.32,1.32,0,1,0,1.32-1.319,1.32,1.32,0,0,0-1.32,1.319Z" fill="#00b1b1"/>
    </g>
  </g>
</svg>
