<svg xmlns="http://www.w3.org/2000/svg" width="24" height="21.811" viewBox="0 0 24 21.811">
  <g id="Danger-4" transform="translate(-2726.996 -1031.829)">
    <path id="Danger-5" d="M2730.339,1053.64h-.137a3.481,3.481,0,0,1-.833-.15l-.268-.095a3.4,3.4,0,0,1-1.892-4.322l.078-.2,8.729-15.285a3.4,3.4,0,0,1,5.831-.194l.11.184,8.786,15.393a3.376,3.376,0,0,1-.563,3.482,3.448,3.448,0,0,1-2.242,1.174l-.212.017Zm17.339-1.8a1.6,1.6,0,0,0,1.513-1.672,2.105,2.105,0,0,0-.037-.3l-.027-.12-8.741-15.3a1.6,1.6,0,0,0-2.171-.621h0a1.555,1.555,0,0,0-.53.481l-.1.157-8.684,15.177a1.6,1.6,0,0,0,.874,2.078,1.732,1.732,0,0,0,.346.1l.18.02h.037Zm-9.589-4.082a.905.905,0,0,1,.9-.907.9.9,0,0,1,.9.889v.018a.9.9,0,1,1-1.8,0Zm0-3.328-.008-.12v-3.716a.9.9,0,0,1,1.793-.121l.007.121v3.721a.9.9,0,0,1-1.792.12Z" fill="#00b1b1"/>
  </g>
</svg>
