<svg xmlns="http://www.w3.org/2000/svg" width="10.22" height="4.258" viewBox="0 0 10.22 4.258">
  <path id="ic_chevron_down" d="M2754.23,826.906a.554.554,0,0,0-.4.169.578.578,0,0,0-.054.756l.1.1,3.442,2.685a2.364,2.364,0,0,0,1.475.514,2.406,2.406,0,0,0,1.481-.514l3.412-2.731.061-.06a.585.585,0,0,0-.009-.756.627.627,0,0,0-.4-.2h-.032a.575.575,0,0,0-.392.151l-3.41,2.723a1.183,1.183,0,0,1-.757.272,1.2,1.2,0,0,1-.756-.272l-3.4-2.723A.581.581,0,0,0,2754.23,826.906Z" transform="translate(-2753.656 -826.871)" fill="#909399"/>
</svg>
