<svg xmlns="http://www.w3.org/2000/svg" width="10.22" height="4.259" viewBox="0 0 10.22 4.259">
  <path id="ic_chevron_down" d="M1327.9,53.9a.555.555,0,0,0-.4.17.576.576,0,0,0-.053.756l.1.1,3.441,2.685a2.366,2.366,0,0,0,1.475.515,2.411,2.411,0,0,0,1.481-.515l3.413-2.73.06-.061a.586.586,0,0,0-.009-.756.632.632,0,0,0-.4-.2h-.032a.578.578,0,0,0-.393.152l-3.41,2.723a1.186,1.186,0,0,1-.756.272,1.214,1.214,0,0,1-.757-.272l-3.4-2.723A.591.591,0,0,0,1327.9,53.9Z" transform="translate(-1327.329 -53.868)" fill="#fff"/>
</svg>
