<svg xmlns="http://www.w3.org/2000/svg" viewBox="0 0 16 18.82"><defs><style>.cls-1{fill:#00b1b1;}</style></defs><g id="Capa_2" data-name="Capa 2"><g id="_01-Login" data-name="01-Login"><path id="ic_security_tips" class="cls-1" d="M8.08,18.82a.68.68,0,0,1-.34-.08L4.35,17a8.21,8.21,0,0,1-2.3-1.71,7.79,7.79,0,0,1-2-5.15L0,3.88A1.71,1.71,0,0,1,1.16,2.27L7.38.1a1.84,1.84,0,0,1,1.16,0l6.24,2.1A1.71,1.71,0,0,1,16,3.79L16,10a7.76,7.76,0,0,1-1.94,5.17,8,8,0,0,1-2.28,1.73l-3.36,1.8a.81.81,0,0,1-.34.08M7.36,11.6a.67.67,0,0,0,.5-.21l3.67-3.62,0,0a.68.68,0,0,0,0-1,.73.73,0,0,0-1,0L7.35,9.92,6.05,8.68a.72.72,0,0,0-1,0l0,0a.68.68,0,0,0,0,1l1.81,1.73a.71.71,0,0,0,.5.21"/></g></g></svg>