<?xml version="1.0" standalone="no"?>
<!DOCTYPE svg PUBLIC "-//W3C//DTD SVG 20010904//EN"
 "http://www.w3.org/TR/2001/REC-SVG-20010904/DTD/svg10.dtd">
<svg version="1.0" xmlns="http://www.w3.org/2000/svg"
 width="1024.000000pt" height="1024.000000pt" viewBox="0 0 1024.000000 1024.000000"
 preserveAspectRatio="xMidYMid meet">
<metadata>
Created by potrace 1.14, written by Peter Selinger 2001-2017
</metadata>
<g transform="translate(0.000000,1024.000000) scale(0.100000,-0.100000)"
fill="#000000" stroke="none">
<path d="M6182 10082 c-30 -86 -60 -177 -67 -202 -7 -25 -50 -153 -95 -285
-83 -243 -552 -1633 -739 -2195 -57 -168 -105 -312 -108 -320 -13 -35 -765
-2270 -826 -2452 l-52 -158 -45 0 c-25 -1 -497 -2 -1050 -4 -553 -2 -1020 -6
-1038 -9 -18 -3 -52 -9 -75 -12 -294 -42 -576 -214 -756 -458 -54 -74 -133
-231 -161 -322 -20 -63 -178 -550 -340 -1045 -33 -102 -99 -304 -146 -450 -47
-146 -90 -274 -94 -285 -5 -11 -79 -236 -165 -500 -86 -264 -192 -588 -235
-720 -44 -132 -104 -316 -135 -410 -32 -98 -55 -188 -55 -212 l0 -43 1398 0
1399 0 227 678 c125 372 229 684 231 692 2 8 74 222 159 475 170 503 876 2608
876 2610 0 1 453 2 1008 2 554 0 1034 3 1067 7 33 4 80 9 105 12 65 8 221 50
297 80 56 22 186 92 218 116 246 187 361 360 463 698 11 36 77 243 147 460
151 472 207 645 245 765 16 50 52 162 80 250 57 177 114 355 165 515 19 58 43
132 53 165 46 140 146 450 147 455 1 5 83 263 128 400 12 36 22 67 22 70 0 3
10 34 22 70 12 36 58 180 103 320 45 140 90 280 100 310 46 141 92 290 89 292
-1 2 3 13 10 26 6 12 25 64 40 115 16 50 64 200 106 332 43 132 83 259 90 283
l13 42 -1386 0 -1387 0 -53 -158z"/>
</g>
</svg>
