<svg xmlns="http://www.w3.org/2000/svg" width="173.312" height="42.164" viewBox="0 0 173.312 42.164">
  <g id="logo" transform="translate(-633.344 -151.836)">
    <g id="Grupo_118" data-name="Grupo 118">
      <g id="Grupo_117" data-name="Grupo 117">
        <path id="Trazado_100" data-name="Trazado 100" d="M746.393,161.148a3.97,3.97,0,0,1,1.764,1.387,4.693,4.693,0,0,1,.782,2.762A4.969,4.969,0,0,1,747.6,168.9q-1.674,1.725-5.213,1.724a22.593,22.593,0,0,1-4.809-.56V153.15a23.7,23.7,0,0,1,4.809-.338,6.919,6.919,0,0,1,4.6,1.342,4.521,4.521,0,0,1,1.5,3.622,3.635,3.635,0,0,1-.566,1.964A3.967,3.967,0,0,1,746.393,161.148Zm-6.146-1.042h2.136a4.26,4.26,0,0,0,2.113-.455,2.083,2.083,0,0,0,1.059-1.958,1.967,1.967,0,0,0-1.214-1.9,4.251,4.251,0,0,0-1.054-.311,6.066,6.066,0,0,0-.9-.066q-.411,0-1.043.033a8.8,8.8,0,0,0-1.093.106Zm2.136,7.942a4.6,4.6,0,0,0,2.978-.715,2.441,2.441,0,0,0,.655-1.936,2.668,2.668,0,0,0-.649-2.013,4.364,4.364,0,0,0-2.984-.788h-2.136V167.9q.355.062,1.1.111Q741.978,168.048,742.383,168.048Z" fill="#ac9345"/>
        <path id="Trazado_101" data-name="Trazado 101" d="M751.34,158.1a16.529,16.529,0,0,1,3.955-.438,5.447,5.447,0,0,1,4.559,1.874,4.362,4.362,0,0,1,.81,1.659,5.97,5.97,0,0,1,.2,1.575v6.3a7.6,7.6,0,0,1-4.97,1.575,6.468,6.468,0,0,1-4-1.2,3.992,3.992,0,0,1-1.159-1.308,5.373,5.373,0,0,1,0-4.122A4.134,4.134,0,0,1,751.9,162.7a6.514,6.514,0,0,1,4-1.193h2.141a1.881,1.881,0,0,0-.96-1.059,4.07,4.07,0,0,0-1.78-.36,13.118,13.118,0,0,0-3.955.56Zm1.625,7.881a1.9,1.9,0,0,0,.86,1.809,4.2,4.2,0,0,0,2.069.427,6.149,6.149,0,0,0,2.329-.516v-3.766h-2.329a5.1,5.1,0,0,0-2.074.305A1.753,1.753,0,0,0,752.965,165.979Z" fill="#ac9345"/>
        <path id="Trazado_102" data-name="Trazado 102" d="M771.424,163.106a2.93,2.93,0,0,0-.921-2.534,4.044,4.044,0,0,0-2.2-.444,4.895,4.895,0,0,0-1.458.211,5.154,5.154,0,0,0-.577.216l-.289.122-.26.116v9.574h-2.635V159.141a9.829,9.829,0,0,1,5.219-1.481,6.1,6.1,0,0,1,4.216,1.331,5.255,5.255,0,0,1,1.547,4.115v7.261h-2.64Z" fill="#ac9345"/>
        <path id="Trazado_103" data-name="Trazado 103" d="M778.917,151.836v10.9l4.26-4.692h3.555l-5.457,5.807,5.541,6.523h-3.439l-4.46-5.38v5.38h-2.634V151.836Z" fill="#ac9345"/>
      </g>
    </g>
    <g id="Grupo_119" data-name="Grupo 119">
      <path id="Trazado_104" data-name="Trazado 104" d="M740.9,185.732l-.621-.727a2.928,2.928,0,0,1-.665-1.05,2.652,2.652,0,0,1-.222-1.049,2.825,2.825,0,0,1,1.109-2.383,4.236,4.236,0,0,1,2.884-.928,4.172,4.172,0,0,1,2.751.847,2.679,2.679,0,0,1,1.021,2.221,3.183,3.183,0,0,1-.577,1.9,6.182,6.182,0,0,1-1.908,1.534l2.219,2.464a6.943,6.943,0,0,0,.488-1.01q.132-.767.221-1.292h1.6q.71,0,.843.363a1.429,1.429,0,0,1,.089.687q-.133.565-.355,1.211a9.49,9.49,0,0,1-1.243,1.938l2.8,3.069h-3.55l-1.021-1.171a11.4,11.4,0,0,1-.976.727,3.071,3.071,0,0,1-1.02.444,11.558,11.558,0,0,1-3.062.162,5.158,5.158,0,0,1-2.707-.929,3.618,3.618,0,0,1-1.286-2.907,3.79,3.79,0,0,1,.71-2.3A7.012,7.012,0,0,1,740.9,185.732Zm1.509,1.7-.8.525a2.025,2.025,0,0,0-.71.727,1.854,1.854,0,0,0-.266.969,1.745,1.745,0,0,0,.621,1.332,2.161,2.161,0,0,0,1.509.566,3.747,3.747,0,0,0,1.287-.243,3.56,3.56,0,0,0,1.109-.727Zm.8-2.948.4-.242a2.293,2.293,0,0,0,.71-.686,1.586,1.586,0,0,0,.266-.889.928.928,0,0,0-.355-.767,1.533,1.533,0,0,0-1.775,0,1,1,0,0,0-.355.767,1.709,1.709,0,0,0,.178.566.844.844,0,0,0,.177.363l.267.323Z" fill="#ac9345"/>
    </g>
    <g id="Grupo_120" data-name="Grupo 120">
      <path id="Trazado_105" data-name="Trazado 105" d="M692.222,171.464a9.746,9.746,0,0,0,1.762-16.175q-3.525-2.613-10.191-2.617l-10.638.011-1.009-.01c-1.4-.009-8.962.012-8.962.012l-13.255,40.9h4.989a4.9,4.9,0,0,0,4.6-3.218l3.884-10.615v13.825h19.755q7.55,0,11.705-3.21a11.374,11.374,0,0,0,4.027-9.274,9.919,9.919,0,0,0-1.635-5.945A11.294,11.294,0,0,0,692.222,171.464Zm-5.283-10.7a4.429,4.429,0,0,1,0,6.66,8.415,8.415,0,0,1-4.781,1.07h-10.2v-8.682h10.069Q685.679,159.809,686.939,160.761Zm1.008,24.142a9.473,9.473,0,0,1-5.415,1.307H671.963v-10.7H682.41q3.9,0,5.537,1.188a4.848,4.848,0,0,1,1.761,4.162A4.529,4.529,0,0,1,687.947,184.9Z" fill="#fff"/>
    </g>
    <g id="Grupo_121" data-name="Grupo 121">
      <path id="Trazado_107" data-name="Trazado 107" d="M639.465,152.673c-.094-.006-6.121,0-6.121,0l12.611,37.474,4.286-13.169-6.917-21.506A3.685,3.685,0,0,0,639.465,152.673Z" fill="#00aaab"/>
    </g>
    <path id="Trazado_108" data-name="Trazado 108" d="M724.441,153.924a4.482,4.482,0,0,0-1.5-.95,4.707,4.707,0,0,0-1.49-.3c-.114,0-.2,0-.221,0-.6.009-9.819.008-25.69,0a10.773,10.773,0,0,1,1.443.9,9.514,9.514,0,0,1,3.552,6.356h3.455v29.108a4.548,4.548,0,0,0,4.548,4.547h4.387V159.93h12.836v-2.973A4.016,4.016,0,0,0,724.441,153.924Z" fill="#fff"/>
    <g id="Grupo_123" data-name="Grupo 123">
      <g id="Grupo_122" data-name="Grupo 122">
        <path id="Trazado_109" data-name="Trazado 109" d="M766.938,176.423v2.618h-4.143v14.687h-2.679V179.041h-4.138v-2.618Z" fill="#ac9345"/>
        <path id="Trazado_110" data-name="Trazado 110" d="M770.016,193.739h-2.634V182.38a7.409,7.409,0,0,1,2.529-1.109,10.312,10.312,0,0,1,5.175.127v2.607a8.526,8.526,0,0,0-2.8-.516,5.281,5.281,0,0,0-2.269.466Z" fill="#ac9345"/>
        <path id="Trazado_111" data-name="Trazado 111" d="M788.009,192.514A9.807,9.807,0,0,1,782.79,194a6.1,6.1,0,0,1-4.221-1.337,5.251,5.251,0,0,1-1.542-4.115v-7.161h2.64v7.161a2.924,2.924,0,0,0,.921,2.535,4.036,4.036,0,0,0,2.2.443,4.9,4.9,0,0,0,1.458-.211,5.583,5.583,0,0,0,.577-.21l.283-.122.266-.117v-9.479h2.635Z" fill="#ac9345"/>
        <path id="Trazado_112" data-name="Trazado 112" d="M791.98,190.434a7.359,7.359,0,0,0,2.995.948q1.538,0,1.537-.943a1.272,1.272,0,0,0-.561-.954,10.661,10.661,0,0,0-1.636-.987q-.376-.2-1.029-.527l-.829-.416a6.2,6.2,0,0,1-1.281-.832,2.832,2.832,0,0,1-.948-2.124,3.26,3.26,0,0,1,1.026-2.419,4.486,4.486,0,0,1,3.3-1.181,8.726,8.726,0,0,1,3.877,1l-1.287,2.186a3.571,3.571,0,0,0-.7-.35,5.249,5.249,0,0,0-1.891-.344q-1.421,0-1.42.938,0,.438.81.926a23.426,23.426,0,0,0,2.346,1.109,6.319,6.319,0,0,1,2.335,1.575,3.472,3.472,0,0,1,.821,2.324,3.212,3.212,0,0,1-1.3,2.58,5.3,5.3,0,0,1-3.45,1.053,7.361,7.361,0,0,1-4.3-1.53Z" fill="#ac9345"/>
        <path id="Trazado_113" data-name="Trazado 113" d="M806.656,193.8a7.012,7.012,0,0,1-1.087.156c-.137.011-.281.016-.432.016-.06,0-.124.006-.2.006h-.177a3.593,3.593,0,0,1-2.834-1.1,4.517,4.517,0,0,1-1-3.117V177.688h2.634v3.677h3.1v2.169h-3.1v5.873a2.912,2.912,0,0,0,.328,1.587,1.4,1.4,0,0,0,1.237.51,3.368,3.368,0,0,0,1.53-.3Zm0,0a7.012,7.012,0,0,1-1.087.156c-.137.011-.281.016-.432.016-.06,0-.124.006-.2.006h-.177a3.593,3.593,0,0,1-2.834-1.1,4.517,4.517,0,0,1-1-3.117V177.688h2.634v3.677h3.1v2.169h-3.1v5.873a2.912,2.912,0,0,0,.328,1.587,1.4,1.4,0,0,0,1.237.51,3.368,3.368,0,0,0,1.53-.3Z" fill="#ac9345"/>
      </g>
    </g>
  </g>
</svg>
