<svg xmlns="http://www.w3.org/2000/svg" viewBox="0 0 156.2 38"><defs><style>.cls-1{fill:#00aaab;}.cls-2{fill:#00223e;}.cls-3{fill:#ac9345;}</style></defs><g id="Capa_2" data-name="Capa 2"><g id="_05-Home-Dropdown" data-name="05-Home-Dropdown"><g id="logo"><path class="cls-1" d="M5.52.75H0L11.37,34.53l3.86-11.87L9,3.28A3.32,3.32,0,0,0,5.52.75Z"/><path class="cls-2" d="M53.06,17.69a8.48,8.48,0,0,0,3.52-2.9,8.48,8.48,0,0,0,1.25-4.71,8.5,8.5,0,0,0-3.18-7Q51.47.76,45.47.75H35l-8.08,0L15,37.63h4.49a4.41,4.41,0,0,0,4.15-2.9l3.5-9.57V37.62H44.9q6.8,0,10.55-2.89a10.28,10.28,0,0,0,3.63-8.36A9,9,0,0,0,57.6,21,10.11,10.11,0,0,0,53.06,17.69ZM48.3,8a3.42,3.42,0,0,1,1.36,3,3.44,3.44,0,0,1-1.36,3A7.57,7.57,0,0,1,44,15H34.81V7.19h9.07C46.07,7.19,47.54,7.47,48.3,8Zm.91,21.76A8.5,8.5,0,0,1,44.33,31H34.8V21.33h9.42c2.34,0,4,.36,5,1.07a4.37,4.37,0,0,1,1.59,3.75A4.07,4.07,0,0,1,49.21,29.8ZM83.29,4.61V7.29H71.72V37.63h-4a4.11,4.11,0,0,1-4.1-4.1V7.29H60.56a8.58,8.58,0,0,0-3.2-5.72,9.48,9.48,0,0,0-1.3-.81H79.41A4,4,0,0,1,80.75,1a3.85,3.85,0,0,1,1.35.85A3.63,3.63,0,0,1,83.29,4.61Z"/><path class="cls-3" d="M101.88,8.39a3.54,3.54,0,0,1,1.59,1.25,4.23,4.23,0,0,1,.71,2.49A4.46,4.46,0,0,1,103,15.38a6.28,6.28,0,0,1-4.7,1.56,20.12,20.12,0,0,1-4.33-.51V1.18a21.56,21.56,0,0,1,4.33-.3,6.18,6.18,0,0,1,4.14,1.21,4.05,4.05,0,0,1,1.36,3.26,3.26,3.26,0,0,1-.51,1.77A3.45,3.45,0,0,1,101.88,8.39Zm-5.53-.94h1.92a3.72,3.72,0,0,0,1.9-.41,1.87,1.87,0,0,0,1-1.76A1.78,1.78,0,0,0,100,3.57a3.58,3.58,0,0,0-.94-.28,5.55,5.55,0,0,0-.82-.06l-.94,0a7.47,7.47,0,0,0-1,.09Zm1.92,7.16A4.13,4.13,0,0,0,101,14a2.19,2.19,0,0,0,.59-1.75,2.38,2.38,0,0,0-.58-1.81,3.89,3.89,0,0,0-2.69-.71H96.35v4.78a9.38,9.38,0,0,0,1,.1Zm8.07-9a15.13,15.13,0,0,1,3.57-.39A4.91,4.91,0,0,1,114,6.94a4.07,4.07,0,0,1,.73,1.49,5.42,5.42,0,0,1,.18,1.42v5.68A6.83,6.83,0,0,1,110.45,17a5.88,5.88,0,0,1-3.61-1.08,3.62,3.62,0,0,1-1-1.18,3.91,3.91,0,0,1-.37-1.86A3.86,3.86,0,0,1,105.8,11a3.73,3.73,0,0,1,1-1.18,5.88,5.88,0,0,1,3.61-1.08h1.93a1.73,1.73,0,0,0-.87-1,3.6,3.6,0,0,0-1.6-.33,11.75,11.75,0,0,0-3.57.51Zm1.47,7.11a1.73,1.73,0,0,0,.77,1.63,3.87,3.87,0,0,0,1.87.38,5.59,5.59,0,0,0,2.1-.46V10.9h-2.1a4.45,4.45,0,0,0-1.87.28A1.56,1.56,0,0,0,107.81,12.75Zm16.63-2.59a2.64,2.64,0,0,0-.83-2.29,3.67,3.67,0,0,0-2-.4,4.68,4.68,0,0,0-1.32.19,4.49,4.49,0,0,0-.52.2l-.25.11-.24.1V16.7h-2.37V6.58a8.83,8.83,0,0,1,4.7-1.33,5.5,5.5,0,0,1,3.8,1.2,4.72,4.72,0,0,1,1.39,3.71V16.7h-2.38ZM131.2,0V9.83L135,5.6h3.2l-4.92,5.23,5,5.88h-3.1l-4-4.85v4.85h-2.38V0ZM96.93,30.55l-.56-.66a2.75,2.75,0,0,1-.6-.94,2.49,2.49,0,0,1-.2-.95,2.55,2.55,0,0,1,1-2.15,3.86,3.86,0,0,1,2.6-.83,3.75,3.75,0,0,1,2.48.76,2.42,2.42,0,0,1,.92,2,2.89,2.89,0,0,1-.52,1.71,5.65,5.65,0,0,1-1.72,1.39l2,2.22a7,7,0,0,0,.44-.91c.08-.46.14-.85.2-1.17h1.44c.42,0,.68.11.76.33a1.36,1.36,0,0,1,.08.62c-.08.34-.19.7-.32,1.09a9,9,0,0,1-1.12,1.75l2.52,2.76h-3.2l-.92-1c-.3.24-.59.46-.88.65a2.58,2.58,0,0,1-.92.4,10.48,10.48,0,0,1-2.76.15,4.69,4.69,0,0,1-2.44-.84,3.27,3.27,0,0,1-1.16-2.62,3.38,3.38,0,0,1,.64-2.07A6.22,6.22,0,0,1,96.93,30.55Zm1.36,1.53-.72.47a1.87,1.87,0,0,0-.64.66,1.63,1.63,0,0,0-.24.87,1.59,1.59,0,0,0,.56,1.2,2,2,0,0,0,1.36.51,3.07,3.07,0,0,0,2.16-.87ZM99,29.42l.36-.22a2,2,0,0,0,.64-.62,1.42,1.42,0,0,0,.24-.8.85.85,0,0,0-.32-.69,1.41,1.41,0,0,0-1.6,0,.93.93,0,0,0-.32.69,1.44,1.44,0,0,0,.16.51.84.84,0,0,0,.16.33l.24.29Zm21.39-7.26v2.36h-3.73V37.76h-2.42V24.52h-3.73V22.16Zm2.77,15.61H120.8V27.53a6.56,6.56,0,0,1,2.28-1,9.35,9.35,0,0,1,4.66.11V29a7.74,7.74,0,0,0-2.52-.46,4.59,4.59,0,0,0-2,.42Zm16.22-1.11a8.86,8.86,0,0,1-4.7,1.34,5.53,5.53,0,0,1-3.81-1.2,4.77,4.77,0,0,1-1.39-3.71V26.63h2.38v6.46a2.64,2.64,0,0,0,.83,2.28,3.64,3.64,0,0,0,2,.4,4.32,4.32,0,0,0,1.31-.19c.16,0,.33-.11.52-.19l.26-.11.24-.1V26.63h2.37ZM143,34.79a6.58,6.58,0,0,0,2.7.85c.92,0,1.38-.28,1.38-.85a1.13,1.13,0,0,0-.5-.86,9.54,9.54,0,0,0-1.48-.89l-.92-.47-.75-.38a5.83,5.83,0,0,1-1.16-.75,2.58,2.58,0,0,1-.85-1.91,3,3,0,0,1,.92-2.18,4.06,4.06,0,0,1,3-1.07,7.84,7.84,0,0,1,3.49.9l-1.16,2a3.07,3.07,0,0,0-.63-.31,4.62,4.62,0,0,0-1.7-.31c-.85,0-1.28.28-1.28.84,0,.27.24.54.73.84a21.82,21.82,0,0,0,2.11,1A5.67,5.67,0,0,1,149,32.63a3.12,3.12,0,0,1,.74,2.09,2.91,2.91,0,0,1-1.17,2.33,4.79,4.79,0,0,1-3.11.94,6.63,6.63,0,0,1-3.88-1.37Zm13.23,3a6.8,6.8,0,0,1-1,.14h-.73a3.24,3.24,0,0,1-2.55-1,4.06,4.06,0,0,1-.91-2.81V23.3h2.38v3.31h2.79v2h-2.79v5.29a2.71,2.71,0,0,0,.29,1.43,1.27,1.27,0,0,0,1.12.46,3.08,3.08,0,0,0,1.38-.27Zm0,0a6.8,6.8,0,0,1-1,.14h-.73a3.24,3.24,0,0,1-2.55-1,4.06,4.06,0,0,1-.91-2.81V23.3h2.38v3.31h2.79v2h-2.79v5.29a2.71,2.71,0,0,0,.29,1.43,1.27,1.27,0,0,0,1.12.46,3.08,3.08,0,0,0,1.38-.27Z"/></g></g></g></svg>