<svg xmlns="http://www.w3.org/2000/svg" viewBox="0 0 69.62 74"><defs><style>.cls-1{fill:#fff;}</style></defs><g id="Capa_2" data-name="Capa 2"><g id="_02-Login-Security_tips" data-name="02-Login-Security tips"><g id="Security_Tips" data-name="Security Tips"><path id="vbt_seal" class="cls-1" d="M41.05,38.17a4.21,4.21,0,0,0,1.76-1.44,4.66,4.66,0,0,0-1-5.82,7.65,7.65,0,0,0-4.58-1.18H28l-6,18.37H24.3a2.2,2.2,0,0,0,2.07-1.45l1.75-4.76v6.2H37a8.41,8.41,0,0,0,5.25-1.44,5.08,5.08,0,0,0,1.81-4.16,4.51,4.51,0,0,0-.73-2.67A5.12,5.12,0,0,0,41.05,38.17Zm-2.37-4.8a2,2,0,0,1,0,3,3.76,3.76,0,0,1-2.14.48H32v-3.9h4.52A3.88,3.88,0,0,1,38.68,33.37Zm.45,10.84a4.24,4.24,0,0,1-2.43.58H32V40h4.69a4.39,4.39,0,0,1,2.48.53,2.18,2.18,0,0,1,.8,1.87A2,2,0,0,1,39.13,44.21ZM19.1,31l3.1,9.66-1.92,5.91L14.62,29.74h2.75A1.64,1.64,0,0,1,19.1,31Zm37,.67V33H50.35V48.11h-2a2,2,0,0,1-2-2V33H44.79a4.3,4.3,0,0,0-1.6-2.85,4.6,4.6,0,0,0-.64-.4H54.18a1.87,1.87,0,0,1,.67.13,2,2,0,0,1,.67.43A1.77,1.77,0,0,1,56.11,31.66Zm-51-9.43c-.12.22-.25.43-.38.64a6.43,6.43,0,0,1-.47.63L.42,21.35c.07-.2.16-.42.26-.65s.21-.43.31-.62a3.91,3.91,0,0,1,.45-.67A1.72,1.72,0,0,1,1.93,19a1.18,1.18,0,0,1,.55-.17,1.19,1.19,0,0,1,.6.17,1,1,0,0,1,.5.88,1.08,1.08,0,0,1,.68-.3,1.25,1.25,0,0,1,.64.17,1.22,1.22,0,0,1,.69,1A2.8,2.8,0,0,1,5.15,22.23Zm-2.73-.92.24-.44a1.33,1.33,0,0,0,.22-.65.41.41,0,0,0-.24-.37.39.39,0,0,0-.44,0,1.22,1.22,0,0,0-.4.49l-.14.24-.11.25Zm.68.38,1,.57.13-.2a2.75,2.75,0,0,0,.15-.25,1.69,1.69,0,0,0,.24-.72.48.48,0,0,0-.29-.48.47.47,0,0,0-.51,0,1.36,1.36,0,0,0-.44.53Zm7-6.44-.48-.2-.49-.2L8,16.2l.27.46c.09.15.17.3.26.44l-.7.8c-.26-.45-.5-.87-.71-1.26L6.5,15.52c-.18-.35-.35-.7-.5-1s-.31-.65-.44-1l.64-.73,1,.3c.35.11.71.23,1.08.37l1.19.43,1.35.53Zm-3.48-1.4c0,.06.08.15.14.26l.2.37.25.47.28.53.86-1-.56-.22-.49-.19L6.92,14Zm9.06-3.38c-.55-.25-1.11-.48-1.69-.68a13.7,13.7,0,0,0-1.73-.52l1.77,2.41-.82.6L10.53,8.6l.67-.5a6.54,6.54,0,0,1,.71.15l.83.23c.29.08.58.18.88.28l.85.29-1.6-2.17.83-.6L16.4,10Zm6.36-3.42c-.15-.09-.31-.2-.5-.3s-.38-.22-.58-.32l-.62-.28A5.3,5.3,0,0,0,19.75,6l.78,1.77-.94.41L17.75,4l.94-.41.69,1.57c.13-.36.26-.74.39-1.12s.24-.75.35-1.08l1.11-.5c-.13.47-.27.92-.42,1.36s-.32.89-.5,1.34a8.17,8.17,0,0,1,1.41.57,15,15,0,0,1,1.45.87Zm8.13-3.46a1.37,1.37,0,0,1,0-.46,1.71,1.71,0,0,1,.17-.39,1.59,1.59,0,0,1,.26-.32A3.92,3.92,0,0,1,31,2.17a3,3,0,0,1-.31-.39.88.88,0,0,1-.16-.47,1.13,1.13,0,0,1,.28-.92A1.37,1.37,0,0,1,31.71,0a1.39,1.39,0,0,1,.55,0,1.14,1.14,0,0,1,.4.19,1,1,0,0,1,.26.31A1.08,1.08,0,0,1,33,1a1.16,1.16,0,0,1-.18.73,1.91,1.91,0,0,1-.53.57l.79.68a2.37,2.37,0,0,0,.09-.34,1.71,1.71,0,0,0,0-.36l.83,0q0,.12,0,.27a1.88,1.88,0,0,1-.06.31l-.09.31a1.82,1.82,0,0,1-.11.28c.15.15.3.31.45.49a5.82,5.82,0,0,1,.38.53l-1,.08-.16-.2-.2-.21a2.55,2.55,0,0,1-.59.4,2,2,0,0,1-.77.2,2.33,2.33,0,0,1-.78-.06,1.49,1.49,0,0,1-.52-.26A1,1,0,0,1,30.3,4,1.24,1.24,0,0,1,30.19,3.59Zm.9-.17a.47.47,0,0,0,.06.2.62.62,0,0,0,.14.19.68.68,0,0,0,.24.13.9.9,0,0,0,.34,0,1.69,1.69,0,0,0,.48-.11,1.36,1.36,0,0,0,.33-.22l-1.14-1a.66.66,0,0,0-.17.12.61.61,0,0,0-.15.17.68.68,0,0,0-.1.21A.51.51,0,0,0,31.09,3.42ZM32.2,1.06A.42.42,0,0,0,32.08.8a.4.4,0,0,0-.34-.1.49.49,0,0,0-.32.16.47.47,0,0,0-.09.34.59.59,0,0,0,.13.32,1.27,1.27,0,0,0,.28.29,1.67,1.67,0,0,0,.34-.31A.64.64,0,0,0,32.2,1.06Zm14.44.7-.23.85-1.33-.35-.95,3.56-1-.26,1-3.57-1.33-.35L43,.79Zm5.17,2.07a2.79,2.79,0,0,1,1.25,1,1.26,1.26,0,0,1,0,1.26,1.23,1.23,0,0,1-.54.6,1.54,1.54,0,0,1-.78.14,4.79,4.79,0,0,1,.08.48,4.87,4.87,0,0,1,.06.55c0,.18,0,.38,0,.57V9l-1-.51c0-.17,0-.34,0-.52s0-.35,0-.52L50.75,7c0-.15,0-.3-.08-.43l-.45-.23-.75,1.5-.92-.46,2-4a4.84,4.84,0,0,1,.67.23C51.45,3.66,51.64,3.74,51.81,3.83Zm-.34.81-.18-.08-.15-.07L50.58,5.6l.26.13a1.84,1.84,0,0,0,.81.24.51.51,0,0,0,.44-.33.5.5,0,0,0,0-.54A1.58,1.58,0,0,0,51.47,4.64ZM56,12a2.13,2.13,0,0,1-.56-.62,1.48,1.48,0,0,1-.22-.65,1.51,1.51,0,0,1,.09-.66,2.51,2.51,0,0,1,.38-.64l1.77-2.22.8.64L56.55,10a1.56,1.56,0,0,0-.25.41.76.76,0,0,0-.06.35.62.62,0,0,0,.09.3,1,1,0,0,0,.24.26.86.86,0,0,0,.62.2,1.1,1.1,0,0,0,.67-.47L59.58,8.9l.8.64-1.77,2.23a2.33,2.33,0,0,1-.55.5,1.48,1.48,0,0,1-.62.24,1.57,1.57,0,0,1-.7-.07A2.39,2.39,0,0,1,56,12Zm5.5,4.14a1.94,1.94,0,0,0,.26.25.5.5,0,0,0,.22.11.31.31,0,0,0,.19,0,.42.42,0,0,0,.17-.1.46.46,0,0,0,.15-.4,3,3,0,0,0-.22-.76l-.15-.46a2,2,0,0,1-.06-.47,1.29,1.29,0,0,1,.11-.47,1.19,1.19,0,0,1,.34-.43,1.4,1.4,0,0,1,.51-.27,1.27,1.27,0,0,1,.55,0,1.7,1.7,0,0,1,.55.23,2.55,2.55,0,0,1,.52.48,2.88,2.88,0,0,1,.43.67,2.91,2.91,0,0,1,.19.57l-.81.29a2.78,2.78,0,0,0-.14-.44,1.87,1.87,0,0,0-.3-.48,1,1,0,0,0-.42-.34.35.35,0,0,0-.35.07.47.47,0,0,0-.12.18.59.59,0,0,0,0,.23,1.31,1.31,0,0,0,.06.27c0,.1.07.2.11.32a6.42,6.42,0,0,1,.2.64,1.42,1.42,0,0,1,.05.53,1.12,1.12,0,0,1-.14.46,1.6,1.6,0,0,1-.38.42,1.17,1.17,0,0,1-1,.29,2.17,2.17,0,0,1-1.14-.81,2.85,2.85,0,0,1-.32-.44,2.54,2.54,0,0,1-.21-.39c0-.12-.09-.23-.12-.32a1.76,1.76,0,0,1-.06-.25l.81-.3a2.83,2.83,0,0,0,.17.52A2.67,2.67,0,0,0,61.5,16.15Zm8.12,5.53-.77.42-.66-1.21L65,22.66l-.49-.9L67.7,20,67,18.78l.77-.42ZM64.37,53.54c.14-.21.28-.42.43-.62a3.91,3.91,0,0,1,.51-.59L69,54.72a5.9,5.9,0,0,1-.3.63,5.59,5.59,0,0,1-.35.6,4.27,4.27,0,0,1-.48.64,2,2,0,0,1-.52.42,1.24,1.24,0,0,1-.56.13,1.21,1.21,0,0,1-.59-.21,1,1,0,0,1-.45-.91,1.07,1.07,0,0,1-.69.26,1.25,1.25,0,0,1-.63-.21,1.22,1.22,0,0,1-.62-1A2.7,2.7,0,0,1,64.37,53.54Zm2,.67-1-.64-.15.19a2.5,2.5,0,0,0-.16.24,1.78,1.78,0,0,0-.3.7.49.49,0,0,0,.26.5.48.48,0,0,0,.51,0,1.44,1.44,0,0,0,.48-.5Zm.66.42-.27.42a1.51,1.51,0,0,0-.27.64.43.43,0,0,0,.22.38.41.41,0,0,0,.45,0,1.28,1.28,0,0,0,.42-.46l.16-.24.13-.23ZM59,60.18c.15.08.3.16.46.23l.48.23,1.26-1.26-.24-.48-.23-.46.75-.76L62.08,59c.18.41.36.79.51,1.16s.31.71.44,1.05.26.67.37,1l-.68.69-1-.37-1.05-.43-1.16-.51L58.19,61Zm3.37,1.62-.12-.26c0-.12-.11-.24-.17-.39s-.14-.31-.22-.48l-.25-.55-.92.92.54.26.49.22.39.17Zm-9.25,2.79c.53.28,1.07.55,1.63.79a14.62,14.62,0,0,0,1.7.63l-1.61-2.52.86-.55,2.46,3.85-.71.45a5.27,5.27,0,0,1-.69-.19c-.26-.08-.54-.17-.82-.28l-.86-.33-.82-.36,1.45,2.28-.87.55-2.45-3.85Zm-6.57,3c.14.11.3.22.48.34a6,6,0,0,0,.56.35,5.7,5.7,0,0,0,.6.32,5.5,5.5,0,0,0,.59.23L48.09,67l1-.36L50.62,71l-1,.36-.59-1.62c-.16.36-.31.72-.46,1.1l-.42,1-1.14.42q.24-.67.51-1.32c.18-.43.37-.87.58-1.31A7.44,7.44,0,0,1,46.77,69a11.57,11.57,0,0,1-1.39-1Zm-8.33,2.93a1.35,1.35,0,0,1-.07.46,1.69,1.69,0,0,1-.19.38,1.58,1.58,0,0,1-.28.3,4,4,0,0,1-.34.23,2.5,2.5,0,0,1,.29.41,1,1,0,0,1,.13.48,1.15,1.15,0,0,1-.34.9,1.37,1.37,0,0,1-1,.32,1.46,1.46,0,0,1-.54-.08,1,1,0,0,1-.39-.22,1.08,1.08,0,0,1-.24-.32,1.11,1.11,0,0,1-.08-.41,1.2,1.2,0,0,1,.22-.72,2.07,2.07,0,0,1,.57-.53L35.22,71c0,.09-.07.2-.11.33a2.86,2.86,0,0,0-.06.35l-.82-.1c0-.08,0-.17,0-.27s0-.2.08-.3.07-.2.11-.31a1.71,1.71,0,0,1,.14-.27,4.33,4.33,0,0,1-.42-.52,3.06,3.06,0,0,1-.35-.56h1l.15.22a1.37,1.37,0,0,0,.19.22,2.2,2.2,0,0,1,1.39-.51,2.18,2.18,0,0,1,.77.1,1.41,1.41,0,0,1,.5.3.89.89,0,0,1,.27.4A1.2,1.2,0,0,1,38.19,70.52Zm-.92.11a.48.48,0,0,0,0-.2.63.63,0,0,0-.13-.2.74.74,0,0,0-.23-.14.84.84,0,0,0-.34,0,1.42,1.42,0,0,0-.48.08,1.06,1.06,0,0,0-.35.19l1.08,1a.66.66,0,0,0,.17-.12.57.57,0,0,0,.16-.15.82.82,0,0,0,.12-.2A.71.71,0,0,0,37.27,70.63ZM36,72.92a.39.39,0,0,0,.1.27.45.45,0,0,0,.33.11.38.38,0,0,0,.32-.13.48.48,0,0,0,.12-.33.72.72,0,0,0-.11-.34,1.37,1.37,0,0,0-.25-.3,1.48,1.48,0,0,0-.37.29A.56.56,0,0,0,36,72.92ZM21.65,71.28l.28-.83,1.31.44,1.17-3.5,1,.33-1.18,3.5,1.31.44-.28.83Zm-5-2.39a3,3,0,0,1-1.18-1.11,1.28,1.28,0,0,1,.1-1.26,1.26,1.26,0,0,1,.59-.56,1.42,1.42,0,0,1,.78-.09c0-.15,0-.31-.05-.48l0-.55c0-.19,0-.38,0-.58a5.17,5.17,0,0,1,0-.57l1,.58v.52a4.51,4.51,0,0,0,0,.52c0,.17,0,.33,0,.49s0,.3.05.44l.44.25.84-1.44.89.52-2.26,3.89c-.22-.08-.43-.17-.65-.27ZM17,68.1l.18.1.15.07L18,67.2l-.25-.15a1.78,1.78,0,0,0-.79-.29.51.51,0,0,0-.46.3.48.48,0,0,0,0,.54A1.52,1.52,0,0,0,17,68.1Zm-4-7.65a2.22,2.22,0,0,1,.52.66,1.63,1.63,0,0,1,.18.66,1.65,1.65,0,0,1-.14.65,2.38,2.38,0,0,1-.41.62l-1.91,2.1-.77-.69,1.86-2a1.53,1.53,0,0,0,.27-.39.93.93,0,0,0,.08-.35.6.6,0,0,0-.07-.3,1.13,1.13,0,0,0-.22-.27.83.83,0,0,0-.61-.24,1.09,1.09,0,0,0-.7.42l-1.85,2-.76-.69,1.91-2.1a2.11,2.11,0,0,1,.58-.47A1.44,1.44,0,0,1,12.25,60,2.28,2.28,0,0,1,13,60.45ZM7.75,56a1.34,1.34,0,0,0-.25-.27.6.6,0,0,0-.21-.13.41.41,0,0,0-.19,0,.56.56,0,0,0-.17.09.46.46,0,0,0-.18.39,2.85,2.85,0,0,0,.17.77c0,.16.08.31.12.47a1.94,1.94,0,0,1,0,.48,1.29,1.29,0,0,1-.14.46,1.11,1.11,0,0,1-.36.4,1.2,1.2,0,0,1-.53.24,1.27,1.27,0,0,1-.55,0A1.57,1.57,0,0,1,5,58.58a2.4,2.4,0,0,1-.49-.51,2.76,2.76,0,0,1-.39-.7,2.69,2.69,0,0,1-.15-.57l.83-.24a2.57,2.57,0,0,0,.11.44,1.65,1.65,0,0,0,.27.5.93.93,0,0,0,.39.37.34.34,0,0,0,.35,0A.44.44,0,0,0,6,57.65a.58.58,0,0,0,0-.23,1.45,1.45,0,0,0,0-.28l-.1-.32c-.06-.24-.12-.46-.15-.65a1.93,1.93,0,0,1,0-.53,1.23,1.23,0,0,1,.17-.45,1.74,1.74,0,0,1,.41-.4,1.16,1.16,0,0,1,1.06-.22,2.08,2.08,0,0,1,1.08.88,4.44,4.44,0,0,1,.3.46l.18.4c0,.13.08.24.1.33a1.41,1.41,0,0,1,0,.25l-.83.25a2.7,2.7,0,0,0-.13-.53A2.65,2.65,0,0,0,7.75,56ZM0,49.93l.79-.37.59,1.25,3.34-1.56.44.93L1.81,51.74,2.39,53l-.79.37Z"/></g></g></g></svg>